<?xml version="1.0" encoding="UTF-8"?>
<svg xmlns="http://www.w3.org/2000/svg" width="192" height="192" viewBox="0 0 192 192">
  <rect width="192" height="192" rx="32" fill="#4f46e5"/>
  <!-- Open book icon -->
  <g transform="translate(96,96)" fill="none" stroke="white" stroke-width="5" stroke-linecap="round" stroke-linejoin="round">
    <path d="M-48,40 L-48,-32 C-48,-32 -24,-44 0,-32 C24,-44 48,-32 48,-32 L48,40"/>
    <path d="M0,-32 L0,40"/>
    <path d="M-48,40 C-48,40 -24,28 0,40 C24,28 48,40 48,40"/>
    <!-- Page lines left -->
    <path d="M-36,-16 L-8,-24" stroke-width="3" opacity="0.6"/>
    <path d="M-36,-4 L-8,-12" stroke-width="3" opacity="0.6"/>
    <path d="M-36,8 L-8,0" stroke-width="3" opacity="0.6"/>
    <!-- Page lines right -->
    <path d="M36,-16 L8,-24" stroke-width="3" opacity="0.6"/>
    <path d="M36,-4 L8,-12" stroke-width="3" opacity="0.6"/>
    <path d="M36,8 L8,0" stroke-width="3" opacity="0.6"/>
  </g>
</svg>
